<?xml version="1.0" standalone="no"?>
<!DOCTYPE svg PUBLIC "-//W3C//DTD SVG 20010904//EN"
 "http://www.w3.org/TR/2001/REC-SVG-20010904/DTD/svg10.dtd">
<svg version="1.0" xmlns="http://www.w3.org/2000/svg"
 width="800.000000pt" height="170.000000pt" viewBox="0 0 800.000000 170.000000"
 preserveAspectRatio="xMidYMid meet">
<metadata>
Created by potrace 1.15, written by Peter Selinger 2001-2017
</metadata>
<g transform="translate(0.000000,170.000000) scale(0.100000,-0.100000)"
fill="#000000" stroke="none">
<path d="M100 1485 c0 -138 1 -145 20 -145 16 0 20 7 20 30 0 38 21 90 45 110
14 12 62 16 237 20 l218 5 0 -648 c0 -711 2 -690 -60 -722 -16 -8 -45 -15 -65
-15 -31 0 -35 -3 -35 -25 l0 -25 250 0 250 0 0 25 c0 22 -4 25 -37 25 -21 0
-53 9 -71 20 -64 39 -62 23 -60 726 l3 636 214 -2 c127 0 222 -5 233 -11 25
-13 48 -68 48 -114 0 -31 3 -35 25 -35 l25 0 0 129 c0 71 3 136 6 145 8 20
-23 21 -131 1 -116 -21 -872 -21 -1000 0 -150 24 -135 38 -135 -130z"/>
<path d="M4935 1624 c-132 -32 -190 -51 -245 -81 -36 -19 -74 -40 -85 -46 -38
-21 -141 -145 -178 -214 -61 -117 -81 -206 -81 -373 0 -162 18 -249 74 -360
17 -33 30 -63 29 -67 0 -3 6 -10 15 -15 9 -5 16 -14 17 -21 1 -16 135 -133
184 -160 132 -74 260 -102 424 -94 198 10 333 62 453 175 110 104 172 217 204
373 20 99 15 293 -10 384 -21 75 -74 188 -112 237 -16 20 -40 53 -54 72 -14
20 -32 36 -41 36 -9 0 -19 7 -23 15 -3 8 -12 15 -21 15 -8 0 -15 5 -15 10 0 6
-7 10 -15 10 -8 0 -15 4 -15 9 0 11 -73 42 -165 71 -52 16 -103 23 -195 25
-69 2 -134 2 -145 -1z m271 -114 c127 -44 225 -136 293 -275 227 -467 0 -955
-443 -955 -107 0 -250 51 -295 105 -9 11 -23 21 -31 23 -34 8 -121 135 -157
230 -77 204 -71 478 14 635 16 28 52 77 82 109 64 70 183 133 276 148 81 12
192 3 261 -20z"/>
<path d="M2170 1576 c0 -20 6 -24 46 -29 44 -5 99 -41 89 -58 -3 -4 -1 -10 5
-14 7 -4 10 -196 10 -561 0 -598 1 -591 -52 -628 -12 -9 -39 -16 -60 -16 -35
0 -38 -2 -38 -27 l0 -28 217 3 c120 1 224 5 231 7 6 2 12 14 12 25 0 17 -6 20
-40 20 -30 0 -48 7 -75 31 l-35 31 0 264 0 264 380 0 380 -1 0 -248 c0 -272
-5 -301 -54 -327 -16 -8 -44 -14 -63 -14 -31 0 -34 -2 -31 -26 l3 -26 220 1
c121 1 224 6 228 10 17 17 -6 39 -45 44 -48 6 -85 38 -99 86 -7 24 -9 223 -7
579 l3 544 37 34 c28 25 47 34 72 34 32 0 46 13 46 41 0 5 -97 9 -230 9 l-230
0 0 -25 c0 -21 5 -25 30 -25 17 0 44 -7 60 -15 57 -29 60 -48 60 -335 l0 -260
-380 0 -380 0 0 270 0 270 28 31 c21 24 40 34 73 38 36 5 45 10 47 29 l3 22
-230 0 -231 0 0 -24z"/>
<path d="M6530 1570 c0 -29 2 -30 43 -30 51 0 79 -18 101 -64 14 -30 16 -95
16 -571 0 -473 -2 -541 -16 -571 -9 -19 -21 -34 -26 -34 -5 0 -16 -7 -24 -15
-9 -8 -33 -15 -55 -15 -36 0 -39 -2 -39 -27 l0 -28 242 2 c243 3 257 5 258 39
0 6 -21 14 -47 16 -37 4 -56 13 -83 38 l-35 33 -3 578 -2 579 133 0 c90 0 150
-5 184 -15 91 -27 163 -125 182 -246 12 -74 1 -170 -24 -219 -18 -35 -90 -110
-105 -110 -6 0 -10 -4 -10 -9 0 -19 -109 -44 -212 -49 -103 -5 -108 -6 -108
-27 0 -18 7 -24 39 -29 30 -4 51 -18 89 -58 66 -69 123 -144 115 -152 -4 -3
-2 -6 4 -6 13 0 74 -86 66 -94 -3 -3 -1 -6 5 -6 11 0 142 -182 142 -197 0 -4
9 -14 20 -21 11 -7 20 -18 20 -25 0 -16 44 -60 52 -52 3 4 14 -4 24 -17 49
-61 172 -98 321 -98 102 0 103 0 103 24 0 21 -6 25 -47 31 -59 9 -113 30 -113
45 0 6 -4 9 -9 5 -5 -3 -18 6 -29 20 -11 13 -22 22 -24 19 -3 -3 -34 28 -68
68 -35 40 -67 75 -71 76 -5 2 -9 10 -9 17 0 8 -6 18 -12 22 -7 4 -17 15 -23
24 -40 65 -195 266 -231 299 -30 28 -38 40 -26 40 9 0 44 13 77 29 212 100
302 375 195 596 -29 59 -91 135 -110 135 -6 0 -10 3 -10 8 0 12 -72 40 -148
57 -58 12 -137 15 -392 15 l-320 -1 0 -29z"/>
</g>
</svg>
